<?xml version="1.0" encoding="UTF-8"?>
<svg width="300" height="80" viewBox="0 0 300 80" xmlns="http://www.w3.org/2000/svg">
  <!-- Background -->
  <rect width="300" height="80" fill="white"/>
  
  <!-- Main icon container -->
  <g transform="translate(20, 20)">
    <!-- Circular background -->
    <circle cx="25" cy="25" r="23" fill="url(#mainGradient)" stroke="#2563eb" stroke-width="2"/>
    
    <!-- Brain/Intelligence symbol -->
    <g stroke="white" stroke-width="2" fill="none">
      <path d="M15 20 Q25 15 35 20 Q25 25 15 20"/>
      <path d="M13 23 Q25 18 37 23"/>
      <path d="M14 26 Q25 21 36 26"/>
    </g>
    
    <!-- Leaf/Sustainability symbol -->
    <g fill="#10b981" stroke="white" stroke-width="1">
      <path d="M30 10 Q35 5 40 10 Q35 15 30 10"/>
      <path d="M35 5 L35 15" stroke="#10b981" stroke-width="2"/>
    </g>
    
    <!-- Building/Structure symbol -->
    <g stroke="white" stroke-width="2" fill="none">
      <rect x="10" y="30" width="30" height="12"/>
      <rect x="12" y="32" width="4" height="4" fill="white"/>
      <rect x="18" y="32" width="4" height="4" fill="white"/>
      <rect x="24" y="32" width="4" height="4" fill="white"/>
      <rect x="12" y="38" width="4" height="2" fill="white"/>
      <rect x="18" y="38" width="4" height="2" fill="white"/>
      <rect x="24" y="38" width="4" height="2" fill="white"/>
    </g>
  </g>
  
  <!-- Text: IntelliSustain (one word, bold, modern) -->
  <text x="70" y="48" font-family="Arial, Helvetica, sans-serif" font-size="32" font-weight="bold" fill="#2563eb">IntelliSustain</text>
  
  <!-- Tagline -->
  <text x="70" y="70" font-family="Arial, Helvetica, sans-serif" font-size="12" fill="#10b981">AI-Powered Facility Management</text>
  
  <!-- AI indicator dots -->
  <circle cx="250" cy="25" r="3" fill="#2563eb"/>
  <circle cx="260" cy="25" r="3" fill="#10b981"/>
  <circle cx="270" cy="25" r="3" fill="#f59e0b"/>
  
  <!-- Gradients -->
  <defs>
    <linearGradient id="mainGradient" x1="0%" y1="0%" x2="100%" y2="100%">
      <stop offset="0%" style="stop-color:#2563eb;stop-opacity:1" />
      <stop offset="50%" style="stop-color:#1d4ed8;stop-opacity:1" />
      <stop offset="100%" style="stop-color:#1e40af;stop-opacity:1" />
    </linearGradient>
  </defs>
</svg> 